<mxfile host="app.diagrams.net" modified="2023-10-14T18:12:53.111Z" agent="Mozilla/5.0 (Windows NT 10.0; Win64; x64) AppleWebKit/537.36 (KHTML, like Gecko) Chrome/117.0.0.0 Safari/537.36" etag="uPL89FJIFcus4ypgK9Fr" version="22.0.4" type="device">
  <diagram name="Page-1" id="c4acf3e9-155e-7222-9cf6-157b1a14988f">
    <mxGraphModel dx="4337" dy="-173" grid="0" gridSize="10" guides="0" tooltips="1" connect="0" arrows="0" fold="1" page="1" pageScale="1" pageWidth="850" pageHeight="1100" background="none" math="0" shadow="0">
      <root>
        <mxCell id="0" />
        <mxCell id="1" parent="0" />
        <mxCell id="5IcPBQkvsi3HylHIgRuO-8" value="&lt;div style=&quot;&quot;&gt;&lt;b style=&quot;&quot;&gt;&lt;font style=&quot;font-size: 9px;&quot;&gt;No ato de devolução o estado do veículo deverá corresponder ao seu estado no ato de entrega. Caso contrário, o cliente deverá arcar com danos.&lt;/font&gt;&lt;/b&gt;&lt;/div&gt;" style="shape=note;whiteSpace=wrap;html=1;backgroundOutline=1;darkOpacity=0.05;size=13;verticalAlign=bottom;labelBackgroundColor=none;labelBorderColor=none;align=left;" parent="1" vertex="1">
          <mxGeometry x="-1268" y="1841" width="100" height="130" as="geometry" />
        </mxCell>
        <mxCell id="u8VHcEahrcE8FP3tKRez-27" value="PESSOA" style="swimlane;html=1;fontStyle=0;childLayout=stackLayout;horizontal=1;startSize=26;fillColor=none;horizontalStack=0;resizeParent=1;resizeLast=0;collapsible=1;marginBottom=0;swimlaneFillColor=#ffffff;rounded=0;shadow=0;comic=0;labelBackgroundColor=none;strokeWidth=1;fontFamily=Verdana;fontSize=10;align=center;" parent="1" vertex="1">
          <mxGeometry x="-1083" y="1563" width="110" height="156" as="geometry" />
        </mxCell>
        <mxCell id="u8VHcEahrcE8FP3tKRez-28" value="nome" style="text;html=1;strokeColor=none;fillColor=none;align=left;verticalAlign=top;spacingLeft=4;spacingRight=4;whiteSpace=wrap;overflow=hidden;rotatable=0;points=[[0,0.5],[1,0.5]];portConstraint=eastwest;" parent="u8VHcEahrcE8FP3tKRez-27" vertex="1">
          <mxGeometry y="26" width="110" height="26" as="geometry" />
        </mxCell>
        <mxCell id="u8VHcEahrcE8FP3tKRez-29" value="dataNascimento" style="text;html=1;strokeColor=none;fillColor=none;align=left;verticalAlign=top;spacingLeft=4;spacingRight=4;whiteSpace=wrap;overflow=hidden;rotatable=0;points=[[0,0.5],[1,0.5]];portConstraint=eastwest;" parent="u8VHcEahrcE8FP3tKRez-27" vertex="1">
          <mxGeometry y="52" width="110" height="26" as="geometry" />
        </mxCell>
        <mxCell id="u8VHcEahrcE8FP3tKRez-30" value="morada" style="text;html=1;strokeColor=none;fillColor=none;align=left;verticalAlign=top;spacingLeft=4;spacingRight=4;whiteSpace=wrap;overflow=hidden;rotatable=0;points=[[0,0.5],[1,0.5]];portConstraint=eastwest;" parent="u8VHcEahrcE8FP3tKRez-27" vertex="1">
          <mxGeometry y="78" width="110" height="26" as="geometry" />
        </mxCell>
        <mxCell id="u8VHcEahrcE8FP3tKRez-31" value="telefone" style="text;html=1;strokeColor=none;fillColor=none;align=left;verticalAlign=top;spacingLeft=4;spacingRight=4;whiteSpace=wrap;overflow=hidden;rotatable=0;points=[[0,0.5],[1,0.5]];portConstraint=eastwest;" parent="u8VHcEahrcE8FP3tKRez-27" vertex="1">
          <mxGeometry y="104" width="110" height="26" as="geometry" />
        </mxCell>
        <mxCell id="u8VHcEahrcE8FP3tKRez-32" value="email" style="text;html=1;strokeColor=none;fillColor=none;align=left;verticalAlign=top;spacingLeft=4;spacingRight=4;whiteSpace=wrap;overflow=hidden;rotatable=0;points=[[0,0.5],[1,0.5]];portConstraint=eastwest;" parent="u8VHcEahrcE8FP3tKRez-27" vertex="1">
          <mxGeometry y="130" width="110" height="26" as="geometry" />
        </mxCell>
        <mxCell id="u8VHcEahrcE8FP3tKRez-33" value="CLIENTE" style="swimlane;html=1;fontStyle=0;childLayout=stackLayout;horizontal=1;startSize=26;fillColor=none;horizontalStack=0;resizeParent=1;resizeLast=0;collapsible=1;marginBottom=0;swimlaneFillColor=#ffffff;rounded=0;shadow=0;comic=0;labelBackgroundColor=none;strokeWidth=1;fontFamily=Verdana;fontSize=10;align=center;" parent="1" vertex="1">
          <mxGeometry x="-1083" y="1331" width="110" height="110" as="geometry" />
        </mxCell>
        <mxCell id="u8VHcEahrcE8FP3tKRez-34" value="idCartaConducao" style="text;html=1;strokeColor=none;fillColor=none;align=left;verticalAlign=top;spacingLeft=4;spacingRight=4;whiteSpace=wrap;overflow=hidden;rotatable=0;points=[[0,0.5],[1,0.5]];portConstraint=eastwest;" parent="u8VHcEahrcE8FP3tKRez-33" vertex="1">
          <mxGeometry y="26" width="110" height="26" as="geometry" />
        </mxCell>
        <mxCell id="u8VHcEahrcE8FP3tKRez-35" value="validadeCarta" style="text;html=1;strokeColor=none;fillColor=none;align=left;verticalAlign=top;spacingLeft=4;spacingRight=4;whiteSpace=wrap;overflow=hidden;rotatable=0;points=[[0,0.5],[1,0.5]];portConstraint=eastwest;" parent="u8VHcEahrcE8FP3tKRez-33" vertex="1">
          <mxGeometry y="52" width="110" height="26" as="geometry" />
        </mxCell>
        <mxCell id="u8VHcEahrcE8FP3tKRez-36" value="dataEmissaoCarta" style="text;html=1;strokeColor=none;fillColor=none;align=left;verticalAlign=top;spacingLeft=4;spacingRight=4;whiteSpace=wrap;overflow=hidden;rotatable=0;points=[[0,0.5],[1,0.5]];portConstraint=eastwest;" parent="u8VHcEahrcE8FP3tKRez-33" vertex="1">
          <mxGeometry y="78" width="110" height="26" as="geometry" />
        </mxCell>
        <mxCell id="u8VHcEahrcE8FP3tKRez-38" value="FUNCIONÁRIO" style="swimlane;html=1;fontStyle=0;childLayout=stackLayout;horizontal=1;startSize=26;fillColor=none;horizontalStack=0;resizeParent=1;resizeLast=0;collapsible=1;marginBottom=0;swimlaneFillColor=#ffffff;rounded=0;shadow=0;comic=0;labelBackgroundColor=none;strokeWidth=1;fontFamily=Verdana;fontSize=10;align=center;" parent="1" vertex="1">
          <mxGeometry x="-1083" y="1843" width="110" height="110" as="geometry" />
        </mxCell>
        <mxCell id="u8VHcEahrcE8FP3tKRez-39" value="id&lt;br&gt;" style="text;html=1;strokeColor=none;fillColor=none;align=left;verticalAlign=top;spacingLeft=4;spacingRight=4;whiteSpace=wrap;overflow=hidden;rotatable=0;points=[[0,0.5],[1,0.5]];portConstraint=eastwest;" parent="u8VHcEahrcE8FP3tKRez-38" vertex="1">
          <mxGeometry y="26" width="110" height="26" as="geometry" />
        </mxCell>
        <mxCell id="u8VHcEahrcE8FP3tKRez-40" value="horasSemanais" style="text;html=1;strokeColor=none;fillColor=none;align=left;verticalAlign=top;spacingLeft=4;spacingRight=4;whiteSpace=wrap;overflow=hidden;rotatable=0;points=[[0,0.5],[1,0.5]];portConstraint=eastwest;" parent="u8VHcEahrcE8FP3tKRez-38" vertex="1">
          <mxGeometry y="52" width="110" height="26" as="geometry" />
        </mxCell>
        <mxCell id="u8VHcEahrcE8FP3tKRez-41" value="salarioHora" style="text;html=1;strokeColor=none;fillColor=none;align=left;verticalAlign=top;spacingLeft=4;spacingRight=4;whiteSpace=wrap;overflow=hidden;rotatable=0;points=[[0,0.5],[1,0.5]];portConstraint=eastwest;" parent="u8VHcEahrcE8FP3tKRez-38" vertex="1">
          <mxGeometry y="78" width="110" height="26" as="geometry" />
        </mxCell>
        <mxCell id="u8VHcEahrcE8FP3tKRez-42" value="CARRO" style="swimlane;html=1;fontStyle=0;childLayout=stackLayout;horizontal=1;startSize=26;fillColor=none;horizontalStack=0;resizeParent=1;resizeLast=0;collapsible=1;marginBottom=0;swimlaneFillColor=#ffffff;rounded=0;shadow=0;comic=0;labelBackgroundColor=none;strokeWidth=1;fontFamily=Verdana;fontSize=10;align=center;" parent="1" vertex="1">
          <mxGeometry x="-1628" y="1899" width="90" height="78" as="geometry" />
        </mxCell>
        <mxCell id="u8VHcEahrcE8FP3tKRez-43" value="matricula" style="text;html=1;strokeColor=none;fillColor=none;align=left;verticalAlign=top;spacingLeft=4;spacingRight=4;whiteSpace=wrap;overflow=hidden;rotatable=0;points=[[0,0.5],[1,0.5]];portConstraint=eastwest;" parent="u8VHcEahrcE8FP3tKRez-42" vertex="1">
          <mxGeometry y="26" width="90" height="26" as="geometry" />
        </mxCell>
        <mxCell id="u8VHcEahrcE8FP3tKRez-44" value="estadoViatura" style="text;html=1;strokeColor=none;fillColor=none;align=left;verticalAlign=top;spacingLeft=4;spacingRight=4;whiteSpace=wrap;overflow=hidden;rotatable=0;points=[[0,0.5],[1,0.5]];portConstraint=eastwest;" parent="u8VHcEahrcE8FP3tKRez-42" vertex="1">
          <mxGeometry y="52" width="90" height="26" as="geometry" />
        </mxCell>
        <mxCell id="u8VHcEahrcE8FP3tKRez-45" value="ALUGUER" style="swimlane;html=1;fontStyle=0;childLayout=stackLayout;horizontal=1;startSize=26;fillColor=none;horizontalStack=0;resizeParent=1;resizeLast=0;collapsible=1;marginBottom=0;swimlaneFillColor=#ffffff;rounded=0;shadow=0;comic=0;labelBackgroundColor=none;strokeWidth=1;fontFamily=Verdana;fontSize=10;align=center;" parent="1" vertex="1">
          <mxGeometry x="-1448" y="1579" width="160" height="156" as="geometry" />
        </mxCell>
        <mxCell id="u8VHcEahrcE8FP3tKRez-46" value="dataInicio&lt;br&gt;" style="text;html=1;strokeColor=none;fillColor=none;align=left;verticalAlign=top;spacingLeft=4;spacingRight=4;whiteSpace=wrap;overflow=hidden;rotatable=0;points=[[0,0.5],[1,0.5]];portConstraint=eastwest;" parent="u8VHcEahrcE8FP3tKRez-45" vertex="1">
          <mxGeometry y="26" width="160" height="26" as="geometry" />
        </mxCell>
        <mxCell id="u8VHcEahrcE8FP3tKRez-47" value="datafim" style="text;html=1;strokeColor=none;fillColor=none;align=left;verticalAlign=top;spacingLeft=4;spacingRight=4;whiteSpace=wrap;overflow=hidden;rotatable=0;points=[[0,0.5],[1,0.5]];portConstraint=eastwest;" parent="u8VHcEahrcE8FP3tKRez-45" vertex="1">
          <mxGeometry y="52" width="160" height="26" as="geometry" />
        </mxCell>
        <mxCell id="u8VHcEahrcE8FP3tKRez-48" value="horaInicio" style="text;html=1;strokeColor=none;fillColor=none;align=left;verticalAlign=top;spacingLeft=4;spacingRight=4;whiteSpace=wrap;overflow=hidden;rotatable=0;points=[[0,0.5],[1,0.5]];portConstraint=eastwest;" parent="u8VHcEahrcE8FP3tKRez-45" vertex="1">
          <mxGeometry y="78" width="160" height="26" as="geometry" />
        </mxCell>
        <mxCell id="u8VHcEahrcE8FP3tKRez-49" value="horaFim&lt;br&gt;" style="text;html=1;strokeColor=none;fillColor=none;align=left;verticalAlign=top;spacingLeft=4;spacingRight=4;whiteSpace=wrap;overflow=hidden;rotatable=0;points=[[0,0.5],[1,0.5]];portConstraint=eastwest;" parent="u8VHcEahrcE8FP3tKRez-45" vertex="1">
          <mxGeometry y="104" width="160" height="26" as="geometry" />
        </mxCell>
        <mxCell id="u8VHcEahrcE8FP3tKRez-50" value="localLevantamento" style="text;html=1;strokeColor=none;fillColor=none;align=left;verticalAlign=top;spacingLeft=4;spacingRight=4;whiteSpace=wrap;overflow=hidden;rotatable=0;points=[[0,0.5],[1,0.5]];portConstraint=eastwest;" parent="u8VHcEahrcE8FP3tKRez-45" vertex="1">
          <mxGeometry y="130" width="160" height="26" as="geometry" />
        </mxCell>
        <mxCell id="u8VHcEahrcE8FP3tKRez-56" value="MARCA" style="swimlane;html=1;fontStyle=0;childLayout=stackLayout;horizontal=1;startSize=26;fillColor=none;horizontalStack=0;resizeParent=1;resizeLast=0;collapsible=1;marginBottom=0;swimlaneFillColor=#ffffff;rounded=0;shadow=0;comic=0;labelBackgroundColor=none;strokeWidth=1;fontFamily=Verdana;fontSize=10;align=center;" parent="1" vertex="1">
          <mxGeometry x="-1378" y="2077" width="90" height="56" as="geometry" />
        </mxCell>
        <mxCell id="u8VHcEahrcE8FP3tKRez-57" value="nome" style="text;html=1;strokeColor=none;fillColor=none;align=left;verticalAlign=top;spacingLeft=4;spacingRight=4;whiteSpace=wrap;overflow=hidden;rotatable=0;points=[[0,0.5],[1,0.5]];portConstraint=eastwest;" parent="u8VHcEahrcE8FP3tKRez-56" vertex="1">
          <mxGeometry y="26" width="90" height="26" as="geometry" />
        </mxCell>
        <mxCell id="u8VHcEahrcE8FP3tKRez-58" value="MODELO" style="swimlane;html=1;fontStyle=0;childLayout=stackLayout;horizontal=1;startSize=26;fillColor=none;horizontalStack=0;resizeParent=1;resizeLast=0;collapsible=1;marginBottom=0;swimlaneFillColor=#ffffff;rounded=0;shadow=0;comic=0;labelBackgroundColor=none;strokeWidth=1;fontFamily=Verdana;fontSize=10;align=center;" parent="1" vertex="1">
          <mxGeometry x="-1608" y="2067" width="80" height="80" as="geometry" />
        </mxCell>
        <mxCell id="u8VHcEahrcE8FP3tKRez-59" value="nome" style="text;html=1;strokeColor=none;fillColor=none;align=left;verticalAlign=top;spacingLeft=4;spacingRight=4;whiteSpace=wrap;overflow=hidden;rotatable=0;points=[[0,0.5],[1,0.5]];portConstraint=eastwest;" parent="u8VHcEahrcE8FP3tKRez-58" vertex="1">
          <mxGeometry y="26" width="80" height="24" as="geometry" />
        </mxCell>
        <mxCell id="u8VHcEahrcE8FP3tKRez-60" value="tipoCarro" style="text;html=1;strokeColor=none;fillColor=none;align=left;verticalAlign=top;spacingLeft=4;spacingRight=4;whiteSpace=wrap;overflow=hidden;rotatable=0;points=[[0,0.5],[1,0.5]];portConstraint=eastwest;" parent="u8VHcEahrcE8FP3tKRez-58" vertex="1">
          <mxGeometry y="50" width="80" height="26" as="geometry" />
        </mxCell>
        <mxCell id="u8VHcEahrcE8FP3tKRez-63" value="SEGURO" style="swimlane;html=1;fontStyle=0;childLayout=stackLayout;horizontal=1;startSize=26;fillColor=none;horizontalStack=0;resizeParent=1;resizeLast=0;collapsible=1;marginBottom=0;swimlaneFillColor=#ffffff;rounded=0;shadow=0;comic=0;labelBackgroundColor=none;strokeWidth=1;fontFamily=Verdana;fontSize=10;align=center;" parent="1" vertex="1">
          <mxGeometry x="-1493" y="1343" width="100" height="120" as="geometry" />
        </mxCell>
        <mxCell id="u8VHcEahrcE8FP3tKRez-64" value="tipo" style="text;html=1;strokeColor=none;fillColor=none;align=left;verticalAlign=top;spacingLeft=4;spacingRight=4;whiteSpace=wrap;overflow=hidden;rotatable=0;points=[[0,0.5],[1,0.5]];portConstraint=eastwest;" parent="u8VHcEahrcE8FP3tKRez-63" vertex="1">
          <mxGeometry y="26" width="100" height="26" as="geometry" />
        </mxCell>
        <mxCell id="u8VHcEahrcE8FP3tKRez-65" value="descrição&lt;br&gt;" style="text;html=1;strokeColor=none;fillColor=none;align=left;verticalAlign=top;spacingLeft=4;spacingRight=4;whiteSpace=wrap;overflow=hidden;rotatable=0;points=[[0,0.5],[1,0.5]];portConstraint=eastwest;" parent="u8VHcEahrcE8FP3tKRez-63" vertex="1">
          <mxGeometry y="52" width="100" height="26" as="geometry" />
        </mxCell>
        <mxCell id="u8VHcEahrcE8FP3tKRez-66" value="preço" style="text;html=1;strokeColor=none;fillColor=none;align=left;verticalAlign=top;spacingLeft=4;spacingRight=4;whiteSpace=wrap;overflow=hidden;rotatable=0;points=[[0,0.5],[1,0.5]];portConstraint=eastwest;" parent="u8VHcEahrcE8FP3tKRez-63" vertex="1">
          <mxGeometry y="78" width="100" height="26" as="geometry" />
        </mxCell>
        <mxCell id="u8VHcEahrcE8FP3tKRez-67" value="PLANO DE ALUGUER" style="swimlane;html=1;fontStyle=0;childLayout=stackLayout;horizontal=1;startSize=26;fillColor=none;horizontalStack=0;resizeParent=1;resizeLast=0;collapsible=1;marginBottom=0;swimlaneFillColor=#ffffff;rounded=0;shadow=0;comic=0;labelBackgroundColor=none;strokeWidth=1;fontFamily=Verdana;fontSize=10;align=center;" parent="1" vertex="1">
          <mxGeometry x="-1398" y="1873" width="120" height="110" as="geometry" />
        </mxCell>
        <mxCell id="1ph47kxzpxHqcFosfZ3S-9" value="nome" style="text;html=1;strokeColor=none;fillColor=none;align=left;verticalAlign=top;spacingLeft=4;spacingRight=4;whiteSpace=wrap;overflow=hidden;rotatable=0;points=[[0,0.5],[1,0.5]];portConstraint=eastwest;" parent="u8VHcEahrcE8FP3tKRez-67" vertex="1">
          <mxGeometry y="26" width="120" height="26" as="geometry" />
        </mxCell>
        <mxCell id="1ph47kxzpxHqcFosfZ3S-10" value="descrição" style="text;html=1;strokeColor=none;fillColor=none;align=left;verticalAlign=top;spacingLeft=4;spacingRight=4;whiteSpace=wrap;overflow=hidden;rotatable=0;points=[[0,0.5],[1,0.5]];portConstraint=eastwest;" parent="u8VHcEahrcE8FP3tKRez-67" vertex="1">
          <mxGeometry y="52" width="120" height="26" as="geometry" />
        </mxCell>
        <mxCell id="1ph47kxzpxHqcFosfZ3S-11" value="preçoDiária" style="text;html=1;strokeColor=none;fillColor=none;align=left;verticalAlign=top;spacingLeft=4;spacingRight=4;whiteSpace=wrap;overflow=hidden;rotatable=0;points=[[0,0.5],[1,0.5]];portConstraint=eastwest;" parent="u8VHcEahrcE8FP3tKRez-67" vertex="1">
          <mxGeometry y="78" width="120" height="26" as="geometry" />
        </mxCell>
        <mxCell id="1ph47kxzpxHqcFosfZ3S-4" value="" style="endArrow=block;endSize=16;endFill=0;html=1;rounded=0;exitX=0.5;exitY=0;exitDx=0;exitDy=0;entryX=0.498;entryY=1.102;entryDx=0;entryDy=0;entryPerimeter=0;" parent="1" source="u8VHcEahrcE8FP3tKRez-38" target="u8VHcEahrcE8FP3tKRez-32" edge="1">
          <mxGeometry width="160" relative="1" as="geometry">
            <mxPoint x="-1048" y="1783" as="sourcePoint" />
            <mxPoint x="-888" y="1783" as="targetPoint" />
          </mxGeometry>
        </mxCell>
        <mxCell id="1ph47kxzpxHqcFosfZ3S-5" value="" style="endArrow=block;endSize=16;endFill=0;html=1;rounded=0;entryX=0.5;entryY=0;entryDx=0;entryDy=0;strokeColor=default;jumpStyle=none;shadow=0;" parent="1" edge="1">
          <mxGeometry width="160" relative="1" as="geometry">
            <mxPoint x="-1028" y="1443" as="sourcePoint" />
            <mxPoint x="-1028.29" y="1563" as="targetPoint" />
          </mxGeometry>
        </mxCell>
        <mxCell id="1ph47kxzpxHqcFosfZ3S-8" value="" style="endArrow=none;html=1;edgeStyle=orthogonalEdgeStyle;rounded=0;entryX=0;entryY=0.5;entryDx=0;entryDy=0;exitX=1;exitY=0.5;exitDx=0;exitDy=0;" parent="1" target="u8VHcEahrcE8FP3tKRez-40" edge="1">
          <mxGeometry relative="1" as="geometry">
            <mxPoint x="-1288" y="1681.03" as="sourcePoint" />
            <mxPoint x="-1107.04" y="1908.542" as="targetPoint" />
            <Array as="points">
              <mxPoint x="-1158" y="1681" />
              <mxPoint x="-1158" y="1908" />
            </Array>
          </mxGeometry>
        </mxCell>
        <mxCell id="1ph47kxzpxHqcFosfZ3S-16" value="" style="endArrow=none;html=1;edgeStyle=orthogonalEdgeStyle;rounded=0;entryX=0.805;entryY=-0.004;entryDx=0;entryDy=0;entryPerimeter=0;" parent="1" target="u8VHcEahrcE8FP3tKRez-45" edge="1">
          <mxGeometry relative="1" as="geometry">
            <mxPoint x="-1084" y="1403" as="sourcePoint" />
            <mxPoint x="-1274" y="1571" as="targetPoint" />
            <Array as="points">
              <mxPoint x="-1084" y="1403" />
              <mxPoint x="-1318" y="1403" />
              <mxPoint x="-1318" y="1578" />
            </Array>
          </mxGeometry>
        </mxCell>
        <mxCell id="iwyS8x97kc3tYDYb35Mc-1" value="1" style="text;html=1;strokeColor=none;fillColor=none;align=center;verticalAlign=middle;whiteSpace=wrap;rounded=0;" parent="1" vertex="1">
          <mxGeometry x="-1128" y="1403" width="60" height="30" as="geometry" />
        </mxCell>
        <mxCell id="iwyS8x97kc3tYDYb35Mc-3" value="1" style="text;html=1;strokeColor=none;fillColor=none;align=center;verticalAlign=middle;whiteSpace=wrap;rounded=0;" parent="1" vertex="1">
          <mxGeometry x="-1333" y="1549" width="60" height="30" as="geometry" />
        </mxCell>
        <mxCell id="iwyS8x97kc3tYDYb35Mc-13" value="&lt;font style=&quot;font-size: 15px;&quot;&gt;*&lt;/font&gt;" style="text;html=1;strokeColor=none;fillColor=none;align=center;verticalAlign=middle;whiteSpace=wrap;rounded=0;" parent="1" vertex="1">
          <mxGeometry x="-1578" y="1711" width="50" height="28" as="geometry" />
        </mxCell>
        <mxCell id="iwyS8x97kc3tYDYb35Mc-25" value="" style="endArrow=none;html=1;edgeStyle=orthogonalEdgeStyle;rounded=0;" parent="1" edge="1">
          <mxGeometry relative="1" as="geometry">
            <mxPoint x="-1338" y="1735" as="sourcePoint" />
            <mxPoint x="-1338" y="1843" as="targetPoint" />
            <Array as="points">
              <mxPoint x="-1338" y="1793" />
              <mxPoint x="-1338" y="1793" />
            </Array>
          </mxGeometry>
        </mxCell>
        <mxCell id="iwyS8x97kc3tYDYb35Mc-28" value="" style="endArrow=diamondThin;endFill=1;endSize=24;html=1;rounded=0;entryX=0;entryY=0;entryDx=0;entryDy=0;" parent="1" edge="1">
          <mxGeometry width="160" relative="1" as="geometry">
            <mxPoint x="-1338" y="1843" as="sourcePoint" />
            <mxPoint x="-1338" y="1873" as="targetPoint" />
            <Array as="points">
              <mxPoint x="-1338" y="1853" />
            </Array>
          </mxGeometry>
        </mxCell>
        <mxCell id="iwyS8x97kc3tYDYb35Mc-31" value="&lt;font style=&quot;font-size: 15px;&quot;&gt;*&lt;/font&gt;" style="text;html=1;strokeColor=none;fillColor=none;align=center;verticalAlign=middle;whiteSpace=wrap;rounded=0;" parent="1" vertex="1">
          <mxGeometry x="-1428" y="1551" width="50" height="28" as="geometry" />
        </mxCell>
        <mxCell id="iwyS8x97kc3tYDYb35Mc-36" value="1" style="text;html=1;strokeColor=none;fillColor=none;align=center;verticalAlign=middle;whiteSpace=wrap;rounded=0;" parent="1" vertex="1">
          <mxGeometry x="-1128" y="1911" width="60" height="30" as="geometry" />
        </mxCell>
        <mxCell id="iwyS8x97kc3tYDYb35Mc-38" value="&lt;font style=&quot;font-size: 15px;&quot;&gt;*&lt;/font&gt;" style="text;html=1;strokeColor=none;fillColor=none;align=center;verticalAlign=middle;whiteSpace=wrap;rounded=0;" parent="1" vertex="1">
          <mxGeometry x="-1298" y="1683" width="50" height="28" as="geometry" />
        </mxCell>
        <mxCell id="iwyS8x97kc3tYDYb35Mc-39" value="" style="endArrow=none;dashed=1;html=1;rounded=0;" parent="1" edge="1">
          <mxGeometry width="50" height="50" relative="1" as="geometry">
            <mxPoint x="-1198" y="1783" as="sourcePoint" />
            <mxPoint x="-1158" y="1783" as="targetPoint" />
          </mxGeometry>
        </mxCell>
        <mxCell id="iwyS8x97kc3tYDYb35Mc-40" value="DEVOLUÇÃO" style="swimlane;html=1;fontStyle=0;childLayout=stackLayout;horizontal=1;startSize=26;fillColor=none;horizontalStack=0;resizeParent=1;resizeLast=0;collapsible=1;marginBottom=0;swimlaneFillColor=#ffffff;rounded=0;shadow=0;comic=0;labelBackgroundColor=none;strokeWidth=1;fontFamily=Verdana;fontSize=10;align=center;" parent="1" vertex="1">
          <mxGeometry x="-1288" y="1755" width="90" height="52" as="geometry" />
        </mxCell>
        <mxCell id="iwyS8x97kc3tYDYb35Mc-46" value="estadoVeiculo" style="text;html=1;strokeColor=none;fillColor=none;align=left;verticalAlign=top;spacingLeft=4;spacingRight=4;whiteSpace=wrap;overflow=hidden;rotatable=0;points=[[0,0.5],[1,0.5]];portConstraint=eastwest;" parent="iwyS8x97kc3tYDYb35Mc-40" vertex="1">
          <mxGeometry y="26" width="90" height="26" as="geometry" />
        </mxCell>
        <mxCell id="iwyS8x97kc3tYDYb35Mc-50" value="" style="endArrow=none;dashed=1;html=1;rounded=0;" parent="1" edge="1">
          <mxGeometry width="50" height="50" relative="1" as="geometry">
            <mxPoint x="-1203" y="1673" as="sourcePoint" />
            <mxPoint x="-1203.3400000000001" y="1631" as="targetPoint" />
          </mxGeometry>
        </mxCell>
        <mxCell id="iwyS8x97kc3tYDYb35Mc-51" value="ENTREGA" style="swimlane;html=1;fontStyle=0;childLayout=stackLayout;horizontal=1;startSize=26;fillColor=none;horizontalStack=0;resizeParent=1;resizeLast=0;collapsible=1;marginBottom=0;swimlaneFillColor=#ffffff;rounded=0;shadow=0;comic=0;labelBackgroundColor=none;strokeWidth=1;fontFamily=Verdana;fontSize=10;align=center;" parent="1" vertex="1">
          <mxGeometry x="-1248" y="1579" width="90" height="52" as="geometry" />
        </mxCell>
        <mxCell id="iwyS8x97kc3tYDYb35Mc-52" value="estadoVeiculo" style="text;html=1;strokeColor=none;fillColor=none;align=left;verticalAlign=top;spacingLeft=4;spacingRight=4;whiteSpace=wrap;overflow=hidden;rotatable=0;points=[[0,0.5],[1,0.5]];portConstraint=eastwest;" parent="iwyS8x97kc3tYDYb35Mc-51" vertex="1">
          <mxGeometry y="26" width="90" height="26" as="geometry" />
        </mxCell>
        <mxCell id="iwyS8x97kc3tYDYb35Mc-53" value="" style="endArrow=none;html=1;edgeStyle=orthogonalEdgeStyle;rounded=0;exitX=1;exitY=0.5;exitDx=0;exitDy=0;entryX=-0.006;entryY=0.154;entryDx=0;entryDy=0;entryPerimeter=0;" parent="1" source="u8VHcEahrcE8FP3tKRez-48" target="u8VHcEahrcE8FP3tKRez-39" edge="1">
          <mxGeometry relative="1" as="geometry">
            <mxPoint x="-1238" y="1673" as="sourcePoint" />
            <mxPoint x="-1108.0300000000002" y="1873.01" as="targetPoint" />
            <Array as="points">
              <mxPoint x="-1288" y="1673" />
              <mxPoint x="-1148" y="1673" />
              <mxPoint x="-1148" y="1873" />
            </Array>
          </mxGeometry>
        </mxCell>
        <mxCell id="iwyS8x97kc3tYDYb35Mc-56" value="" style="endArrow=diamondThin;endFill=1;endSize=24;html=1;rounded=0;entryX=-0.003;entryY=0.081;entryDx=0;entryDy=0;entryPerimeter=0;exitX=0.993;exitY=0.879;exitDx=0;exitDy=0;exitPerimeter=0;" parent="1" edge="1">
          <mxGeometry width="160" relative="1" as="geometry">
            <mxPoint x="-1568.6399999999999" y="1711.7440000000001" as="sourcePoint" />
            <mxPoint x="-1448.0000000000005" y="1710.996" as="targetPoint" />
          </mxGeometry>
        </mxCell>
        <mxCell id="iwyS8x97kc3tYDYb35Mc-70" value="" style="endArrow=none;html=1;edgeStyle=orthogonalEdgeStyle;rounded=0;exitX=0.75;exitY=1;exitDx=0;exitDy=0;" parent="1" source="u8VHcEahrcE8FP3tKRez-63" edge="1">
          <mxGeometry relative="1" as="geometry">
            <mxPoint x="-1418" y="1517" as="sourcePoint" />
            <mxPoint x="-1418" y="1579" as="targetPoint" />
            <Array as="points" />
          </mxGeometry>
        </mxCell>
        <mxCell id="iwyS8x97kc3tYDYb35Mc-71" value="&lt;font style=&quot;font-size: 15px;&quot;&gt;1..*&lt;/font&gt;" style="text;html=1;strokeColor=none;fillColor=none;align=center;verticalAlign=middle;whiteSpace=wrap;rounded=0;" parent="1" vertex="1">
          <mxGeometry x="-1428" y="1463" width="50" height="28" as="geometry" />
        </mxCell>
        <mxCell id="iwyS8x97kc3tYDYb35Mc-73" value="SEGURADORA" style="swimlane;html=1;fontStyle=0;childLayout=stackLayout;horizontal=1;startSize=20;fillColor=none;horizontalStack=0;resizeParent=1;resizeLast=0;collapsible=1;marginBottom=0;swimlaneFillColor=#ffffff;rounded=0;shadow=0;comic=0;labelBackgroundColor=none;strokeWidth=1;fontFamily=Verdana;fontSize=10;align=center;" parent="1" vertex="1">
          <mxGeometry x="-1698" y="1491" width="105" height="124" as="geometry" />
        </mxCell>
        <mxCell id="iwyS8x97kc3tYDYb35Mc-74" value="nome" style="text;html=1;strokeColor=none;fillColor=none;align=left;verticalAlign=top;spacingLeft=4;spacingRight=4;whiteSpace=wrap;overflow=hidden;rotatable=0;points=[[0,0.5],[1,0.5]];portConstraint=eastwest;" parent="iwyS8x97kc3tYDYb35Mc-73" vertex="1">
          <mxGeometry y="20" width="105" height="26" as="geometry" />
        </mxCell>
        <mxCell id="iwyS8x97kc3tYDYb35Mc-75" value="morada" style="text;html=1;strokeColor=none;fillColor=none;align=left;verticalAlign=top;spacingLeft=4;spacingRight=4;whiteSpace=wrap;overflow=hidden;rotatable=0;points=[[0,0.5],[1,0.5]];portConstraint=eastwest;" parent="iwyS8x97kc3tYDYb35Mc-73" vertex="1">
          <mxGeometry y="46" width="105" height="26" as="geometry" />
        </mxCell>
        <mxCell id="iwyS8x97kc3tYDYb35Mc-76" value="telefone" style="text;html=1;strokeColor=none;fillColor=none;align=left;verticalAlign=top;spacingLeft=4;spacingRight=4;whiteSpace=wrap;overflow=hidden;rotatable=0;points=[[0,0.5],[1,0.5]];portConstraint=eastwest;" parent="iwyS8x97kc3tYDYb35Mc-73" vertex="1">
          <mxGeometry y="72" width="105" height="26" as="geometry" />
        </mxCell>
        <mxCell id="iwyS8x97kc3tYDYb35Mc-77" value="email" style="text;html=1;strokeColor=none;fillColor=none;align=left;verticalAlign=top;spacingLeft=4;spacingRight=4;whiteSpace=wrap;overflow=hidden;rotatable=0;points=[[0,0.5],[1,0.5]];portConstraint=eastwest;" parent="iwyS8x97kc3tYDYb35Mc-73" vertex="1">
          <mxGeometry y="98" width="105" height="26" as="geometry" />
        </mxCell>
        <mxCell id="iwyS8x97kc3tYDYb35Mc-78" value="EXTRAS" style="swimlane;html=1;fontStyle=0;childLayout=stackLayout;horizontal=1;startSize=26;fillColor=none;horizontalStack=0;resizeParent=1;resizeLast=0;collapsible=1;marginBottom=0;swimlaneFillColor=#ffffff;rounded=0;shadow=0;comic=0;labelBackgroundColor=none;strokeWidth=1;fontFamily=Verdana;fontSize=10;align=center;" parent="1" vertex="1">
          <mxGeometry x="-1655.5" y="1660" width="87.5" height="130" as="geometry" />
        </mxCell>
        <mxCell id="iwyS8x97kc3tYDYb35Mc-79" value="nome" style="text;html=1;strokeColor=none;fillColor=none;align=left;verticalAlign=top;spacingLeft=4;spacingRight=4;whiteSpace=wrap;overflow=hidden;rotatable=0;points=[[0,0.5],[1,0.5]];portConstraint=eastwest;" parent="iwyS8x97kc3tYDYb35Mc-78" vertex="1">
          <mxGeometry y="26" width="87.5" height="26" as="geometry" />
        </mxCell>
        <mxCell id="iwyS8x97kc3tYDYb35Mc-80" value="descrição" style="text;html=1;strokeColor=none;fillColor=none;align=left;verticalAlign=top;spacingLeft=4;spacingRight=4;whiteSpace=wrap;overflow=hidden;rotatable=0;points=[[0,0.5],[1,0.5]];portConstraint=eastwest;" parent="iwyS8x97kc3tYDYb35Mc-78" vertex="1">
          <mxGeometry y="52" width="87.5" height="26" as="geometry" />
        </mxCell>
        <mxCell id="iwyS8x97kc3tYDYb35Mc-81" value="valor" style="text;html=1;strokeColor=none;fillColor=none;align=left;verticalAlign=top;spacingLeft=4;spacingRight=4;whiteSpace=wrap;overflow=hidden;rotatable=0;points=[[0,0.5],[1,0.5]];portConstraint=eastwest;" parent="iwyS8x97kc3tYDYb35Mc-78" vertex="1">
          <mxGeometry y="78" width="87.5" height="26" as="geometry" />
        </mxCell>
        <mxCell id="iwyS8x97kc3tYDYb35Mc-82" value="quantidade" style="text;html=1;strokeColor=none;fillColor=none;align=left;verticalAlign=top;spacingLeft=4;spacingRight=4;whiteSpace=wrap;overflow=hidden;rotatable=0;points=[[0,0.5],[1,0.5]];portConstraint=eastwest;" parent="iwyS8x97kc3tYDYb35Mc-78" vertex="1">
          <mxGeometry y="104" width="87.5" height="26" as="geometry" />
        </mxCell>
        <mxCell id="iwyS8x97kc3tYDYb35Mc-84" value="" style="endArrow=none;html=1;edgeStyle=orthogonalEdgeStyle;rounded=0;exitX=0.166;exitY=0.035;exitDx=0;exitDy=0;exitPerimeter=0;entryX=0.374;entryY=-0.006;entryDx=0;entryDy=0;entryPerimeter=0;" parent="1" edge="1">
          <mxGeometry relative="1" as="geometry">
            <mxPoint x="-1578.04" y="1978.05" as="sourcePoint" />
            <mxPoint x="-1578.08" y="2064.5200000000004" as="targetPoint" />
            <Array as="points" />
          </mxGeometry>
        </mxCell>
        <mxCell id="iwyS8x97kc3tYDYb35Mc-86" value="" style="line;strokeWidth=1;fillColor=none;align=left;verticalAlign=middle;spacingTop=-1;spacingLeft=3;spacingRight=3;rotatable=0;labelPosition=right;points=[];portConstraint=eastwest;strokeColor=inherit;" parent="1" vertex="1">
          <mxGeometry x="-1528" y="2103" width="150" height="8" as="geometry" />
        </mxCell>
        <mxCell id="iwyS8x97kc3tYDYb35Mc-87" value="1" style="text;html=1;strokeColor=none;fillColor=none;align=center;verticalAlign=middle;whiteSpace=wrap;rounded=0;" parent="1" vertex="1">
          <mxGeometry x="-1428" y="2081" width="60" height="30" as="geometry" />
        </mxCell>
        <mxCell id="iwyS8x97kc3tYDYb35Mc-88" value="1..*" style="text;html=1;strokeColor=none;fillColor=none;align=center;verticalAlign=middle;whiteSpace=wrap;rounded=0;" parent="1" vertex="1">
          <mxGeometry x="-1533" y="2085" width="40" height="22" as="geometry" />
        </mxCell>
        <mxCell id="iwyS8x97kc3tYDYb35Mc-89" value="1..*" style="text;html=1;strokeColor=none;fillColor=none;align=center;verticalAlign=middle;whiteSpace=wrap;rounded=0;" parent="1" vertex="1">
          <mxGeometry x="-1548" y="1933" width="60" height="30" as="geometry" />
        </mxCell>
        <mxCell id="iwyS8x97kc3tYDYb35Mc-90" value="1" style="text;html=1;strokeColor=none;fillColor=none;align=center;verticalAlign=middle;whiteSpace=wrap;rounded=0;" parent="1" vertex="1">
          <mxGeometry x="-1568" y="2033" width="20" height="30" as="geometry" />
        </mxCell>
        <mxCell id="iwyS8x97kc3tYDYb35Mc-92" value="1" style="text;html=1;strokeColor=none;fillColor=none;align=center;verticalAlign=middle;whiteSpace=wrap;rounded=0;" parent="1" vertex="1">
          <mxGeometry x="-1128" y="1843" width="60" height="30" as="geometry" />
        </mxCell>
        <mxCell id="iwyS8x97kc3tYDYb35Mc-93" value="&lt;font style=&quot;font-size: 15px;&quot;&gt;*&lt;/font&gt;" style="text;html=1;strokeColor=none;fillColor=none;align=center;verticalAlign=middle;whiteSpace=wrap;rounded=0;" parent="1" vertex="1">
          <mxGeometry x="-1298" y="1653" width="50" height="28" as="geometry" />
        </mxCell>
        <mxCell id="iwyS8x97kc3tYDYb35Mc-94" value="&lt;font style=&quot;font-size: 15px;&quot;&gt;*&lt;/font&gt;" style="text;html=1;strokeColor=none;fillColor=none;align=center;verticalAlign=middle;whiteSpace=wrap;rounded=0;" parent="1" vertex="1">
          <mxGeometry x="-1378" y="1735" width="50" height="28" as="geometry" />
        </mxCell>
        <mxCell id="iwyS8x97kc3tYDYb35Mc-97" value="" style="line;strokeWidth=1;fillColor=none;align=left;verticalAlign=middle;spacingTop=-1;spacingLeft=3;spacingRight=3;rotatable=0;labelPosition=right;points=[];portConstraint=eastwest;strokeColor=inherit;" parent="1" vertex="1">
          <mxGeometry x="-1538" y="1933" width="140" height="8" as="geometry" />
        </mxCell>
        <mxCell id="iwyS8x97kc3tYDYb35Mc-98" value="1" style="text;html=1;strokeColor=none;fillColor=none;align=center;verticalAlign=middle;whiteSpace=wrap;rounded=0;" parent="1" vertex="1">
          <mxGeometry x="-1448" y="1933" width="60" height="30" as="geometry" />
        </mxCell>
        <mxCell id="iwyS8x97kc3tYDYb35Mc-99" value="" style="endArrow=none;html=1;edgeStyle=orthogonalEdgeStyle;rounded=0;exitX=-0.01;exitY=0.773;exitDx=0;exitDy=0;exitPerimeter=0;" parent="1" source="u8VHcEahrcE8FP3tKRez-65" edge="1">
          <mxGeometry relative="1" as="geometry">
            <mxPoint x="-1648.5300000000002" y="1375" as="sourcePoint" />
            <mxPoint x="-1648.5300000000002" y="1491" as="targetPoint" />
            <Array as="points" />
          </mxGeometry>
        </mxCell>
        <mxCell id="iwyS8x97kc3tYDYb35Mc-100" value="&lt;font style=&quot;font-size: 15px;&quot;&gt;1..*&lt;/font&gt;" style="text;html=1;strokeColor=none;fillColor=none;align=center;verticalAlign=middle;whiteSpace=wrap;rounded=0;" parent="1" vertex="1">
          <mxGeometry x="-1578" y="1413" width="50" height="28" as="geometry" />
        </mxCell>
        <mxCell id="iwyS8x97kc3tYDYb35Mc-101" value="&lt;font style=&quot;font-size: 15px;&quot;&gt;1&lt;/font&gt;" style="text;html=1;strokeColor=none;fillColor=none;align=center;verticalAlign=middle;whiteSpace=wrap;rounded=0;" parent="1" vertex="1">
          <mxGeometry x="-1658" y="1463" width="50" height="28" as="geometry" />
        </mxCell>
        <mxCell id="5IcPBQkvsi3HylHIgRuO-3" value="" style="endArrow=none;dashed=1;html=1;dashPattern=1 3;strokeWidth=2;rounded=0;entryX=0.647;entryY=0.991;entryDx=0;entryDy=0;entryPerimeter=0;exitX=0;exitY=0;exitDx=43.5;exitDy=0;exitPerimeter=0;" parent="1" source="5IcPBQkvsi3HylHIgRuO-8" edge="1">
          <mxGeometry width="50" height="50" relative="1" as="geometry">
            <mxPoint x="-1226.2" y="1837.63" as="sourcePoint" />
            <mxPoint x="-1226.5000000000002" y="1807" as="targetPoint" />
          </mxGeometry>
        </mxCell>
        <mxCell id="5IcPBQkvsi3HylHIgRuO-9" value="&lt;div style=&quot;&quot;&gt;&lt;b style=&quot;&quot;&gt;&lt;font style=&quot;font-size: 9px;&quot;&gt;Um carro só pode estar associado a um único plano de aluguer por vez, pois o plano de aluguer é definido pelo carro e seus atributos.&amp;nbsp;&lt;/font&gt;&lt;/b&gt;&lt;/div&gt;" style="shape=note;whiteSpace=wrap;html=1;backgroundOutline=1;darkOpacity=0.05;size=13;verticalAlign=bottom;labelBackgroundColor=none;labelBorderColor=none;align=left;" parent="1" vertex="1">
          <mxGeometry x="-1541" y="1771" width="100" height="110" as="geometry" />
        </mxCell>
        <mxCell id="5IcPBQkvsi3HylHIgRuO-10" value="" style="endArrow=none;dashed=1;html=1;dashPattern=1 3;strokeWidth=2;rounded=0;" parent="1" edge="1">
          <mxGeometry width="50" height="50" relative="1" as="geometry">
            <mxPoint x="-1493" y="1933" as="sourcePoint" />
            <mxPoint x="-1493" y="1883" as="targetPoint" />
          </mxGeometry>
        </mxCell>
        <mxCell id="5IcPBQkvsi3HylHIgRuO-14" value="Aluga" style="text;html=1;strokeColor=none;fillColor=default;align=center;verticalAlign=middle;whiteSpace=wrap;rounded=0;" parent="1" vertex="1">
          <mxGeometry x="-1225.5" y="1393" width="45" height="20" as="geometry" />
        </mxCell>
        <mxCell id="5IcPBQkvsi3HylHIgRuO-20" value="Pertence" style="text;html=1;strokeColor=none;fillColor=default;align=center;verticalAlign=middle;whiteSpace=wrap;rounded=0;" parent="1" vertex="1">
          <mxGeometry x="-1485.5" y="1928" width="45" height="20" as="geometry" />
        </mxCell>
        <mxCell id="5IcPBQkvsi3HylHIgRuO-22" value="1..*" style="text;html=1;strokeColor=none;fillColor=none;align=center;verticalAlign=middle;whiteSpace=wrap;rounded=0;" parent="1" vertex="1">
          <mxGeometry x="-1568" y="1977" width="20" height="30" as="geometry" />
        </mxCell>
        <mxCell id="yL0JU537MZO_jwU9V-UJ-1" value="frame" style="shape=umlFrame;whiteSpace=wrap;html=1;pointerEvents=0;" parent="1" vertex="1">
          <mxGeometry x="-1748" y="1311" width="880" height="890" as="geometry" />
        </mxCell>
      </root>
    </mxGraphModel>
  </diagram>
</mxfile>
